<?xml version="1.0" standalone="no"?><!DOCTYPE svg PUBLIC "-//W3C//DTD SVG 1.1//EN" "http://www.w3.org/Graphics/SVG/1.1/DTD/svg11.dtd"><svg t="1571902946367" class="icon" viewBox="0 0 1024 1024" version="1.1" xmlns="http://www.w3.org/2000/svg" p-id="4126" xmlns:xlink="http://www.w3.org/1999/xlink" width="200" height="200"><defs><style type="text/css"></style></defs><path d="M928 896H96a64 64 0 0 1-64-64V192a64 64 0 0 1 64-64h832a64 64 0 0 1 64 64v640a64 64 0 0 1-64 64" fill="#E3E3E3" p-id="4127"></path><path d="M992 832V192c0-9.984-2.464-19.296-6.528-27.68L509.984 544.224 56.32 244.992 671.296 896H928a64 64 0 0 0 64-64" fill="#D0CFCF" p-id="4128"></path><path d="M160 896H96a64 64 0 0 1-64-64V192a64 64 0 0 1 128 0v704z" fill="#D54B3D" p-id="4129"></path><path d="M928 896h-64V192a64 64 0 0 1 128 0v640a64 64 0 0 1-64 64" fill="#AC3D31" p-id="4130"></path><path d="M512 446.112L886.72 142.4a64.256 64.256 0 0 1 91.072 10.272 66.336 66.336 0 0 1-10.112 92.352L512 614.4 56.32 244.992a66.336 66.336 0 0 1-10.112-92.352 64.256 64.256 0 0 1 91.072-10.24L512 446.08z" fill="#D54B3D" p-id="4131"></path></svg>