<?xml version="1.0" standalone="no"?><!DOCTYPE svg PUBLIC "-//W3C//DTD SVG 1.1//EN" "http://www.w3.org/Graphics/SVG/1.1/DTD/svg11.dtd"><svg t="1571902975704" class="icon" viewBox="0 0 1024 1024" version="1.1" xmlns="http://www.w3.org/2000/svg" p-id="4885" xmlns:xlink="http://www.w3.org/1999/xlink" width="200" height="200"><defs><style type="text/css"></style></defs><path d="M755.2 519.68c-38.4-7.68-20.48-28.16-20.48-28.16s38.4-64-7.68-110.08c-56.32-56.32-197.12 7.68-197.12 7.68-53.76 15.36-38.4-7.68-30.72-48.64 0-48.64-15.36-130.56-158.72-81.92C199.68 307.2 79.36 476.16 79.36 476.16-5.12 588.8 5.12 675.84 5.12 675.84 25.6 870.4 230.4 921.6 389.12 934.4c166.4 12.8 394.24-58.88 460.8-204.8 69.12-143.36-53.76-202.24-94.72-209.92zM401.92 880.64C235.52 888.32 102.4 806.4 102.4 693.76c0-110.08 133.12-199.68 299.52-207.36 166.4-7.68 299.52 61.44 299.52 171.52 2.56 110.08-133.12 215.04-299.52 222.72z" fill="#E63C53" p-id="4886"></path><path d="M368.64 558.08c-166.4 20.48-148.48 176.64-148.48 176.64s-2.56 48.64 46.08 74.24c97.28 53.76 197.12 20.48 248.32-46.08 51.2-64 23.04-222.72-145.92-204.8z m-40.96 220.16c-30.72 2.56-56.32-15.36-56.32-40.96s23.04-53.76 53.76-56.32c35.84-2.56 58.88 17.92 58.88 43.52 0 28.16-25.6 51.2-56.32 53.76z m97.28-81.92c-10.24 7.68-23.04 7.68-28.16-2.56-5.12-10.24-2.56-23.04 7.68-30.72 12.8-10.24 25.6-7.68 30.72 2.56 5.12 7.68 0 20.48-10.24 30.72z m412.16-243.2c15.36 0 25.6-10.24 28.16-25.6 20.48-184.32-151.04-151.04-151.04-151.04-15.36 0-28.16 12.8-28.16 28.16 0 15.36 12.8 28.16 28.16 28.16 122.88-28.16 94.72 94.72 94.72 94.72 0 12.8 12.8 25.6 28.16 25.6z" fill="#E63C53" p-id="4887"></path><path d="M816.64 130.56c-58.88-12.8-120.32-2.56-135.68 2.56l-2.56 2.56c-20.48 5.12-33.28 28.16-28.16 51.2 5.12 17.92 20.48 28.16 38.4 28.16 0 0 20.48-2.56 35.84-7.68 15.36-5.12 135.68-5.12 197.12 97.28 33.28 74.24 15.36 125.44 12.8 133.12 0 0-7.68 20.48-7.68 38.4 0 23.04 17.92 35.84 38.4 35.84 17.92 0 33.28-2.56 38.4-33.28 64-220.16-79.36-322.56-186.88-348.16z" fill="#E63C53" p-id="4888"></path></svg>